<svg xmlns="http://www.w3.org/2000/svg" width="3536" height="3536" viewBox="0 0 3536 3536">
  <g fill="none" transform="translate(207 1)">
    <polyline fill="#C7C9C4" points="3123 2432.218 1562.025 2203 0 2432.511 1561.622 3011 3123 2432.218"/>
    <polyline fill="#615A2C" points="312 2405.487 575.948 2488 600 2460.687 600 613.548 575.948 582 312 682.978 312 2405.487"/>
    <polyline fill="#EACB26" points="1510 2323.836 576 2488 576 582 1510 792.187 1510 2323.836"/>
    <polyline fill="#2C3E61" points="1094.054 2647 729 2534.705 729 182.142 1094.054 0 1126 34.722 1126 2608.165 1094.054 2647"/>
    <polyline fill="#2285CC" points="2342 2354.155 1094 2647 1094 0 2342 486.541 2342 2354.155"/>
    <polyline fill="#6D6D6D" points="1561 2986.825 0 2433 0 2754.227 1561 3535 1561 2986.825"/>
    <polyline fill="#A5A5A5" points="3123 2753.348 1561 3535 1561 2986.473 3123 2432 3123 2753.348"/>
    <polyline fill="#C38989" points="2685 1901 2306.365 1901 1227 1974.402 1561.775 2036 2685 1901"/>
    <polyline fill="#612C2C" points="1226 2683.674 1560.378 2784 1570 2773.645 1569.72 2019.321 1560.098 2010.076 1226 1974 1226 2683.674"/>
    <polyline fill="#F45757" points="2685 1900 1561 2009.709 1561.281 2785 2685 2446.455 2685 1900"/>
  </g>
</svg>
